<?xml version="1.0" standalone="no"?>
<!DOCTYPE svg PUBLIC "-//W3C//DTD SVG 20010904//EN"
 "http://www.w3.org/TR/2001/REC-SVG-20010904/DTD/svg10.dtd">
<svg version="1.0" xmlns="http://www.w3.org/2000/svg"
 width="1314.000000pt" height="1284.000000pt" viewBox="0 0 1314.000000 1284.000000"
 preserveAspectRatio="xMidYMid meet">
<metadata>
Created by potrace 1.15, written by Peter Selinger 2001-2017
</metadata>
<g transform="translate(0.000000,1284.000000) scale(0.100000,-0.100000)"
fill="#000000" stroke="none">
<path d="M580 6415 l0 -5985 5985 0 5985 0 0 5985 0 5985 -5985 0 -5985 0 0
-5985z m6845 4253 c3 -13 4 -399 3 -858 l-3 -835 -852 -3 -853 -2 0 -1705 0
-1705 855 0 855 0 0 850 0 850 1708 -2 1707 -3 3 -847 2 -848 -1710 0 -1710 0
0 -855 0 -855 -2565 0 -2565 0 0 855 0 855 855 0 855 0 0 1705 0 1705 855 0
855 0 0 853 c0 470 3 857 7 860 3 4 386 7 849 7 l844 0 5 -22z m3420 -838 l0
-855 -855 0 -855 0 -3 845 c-1 465 0 851 3 858 3 10 180 12 857 10 l853 -3 0
-855z m0 -6840 l0 -855 -855 0 -855 0 -3 845 c-1 465 0 851 3 858 3 10 180 12
857 10 l853 -3 0 -855z"/>
</g>
</svg>
